<?xml version="1.0" encoding="UTF-8" standalone="no"?> <svg  viewBox="0 -22 512.00136 512"  xmlns="http://www.w3.org/2000/svg"><path d="m452.660156 365.742188c2.488282-9.285157 1.210938-18.988282-3.597656-27.316407l-22-38.105469c-5.101562-8.839843-13.417969-14.6875-22.628906-16.941406.074218-.257812.15625-.511718.226562-.773437 2.488282-9.289063 1.210938-18.988281-3.597656-27.316407l-22-38.105468c-2.824219-4.898438-6.640625-8.875-11.042969-11.835938.160157-.15625.324219-.300781.480469-.457031 7.5-7.496094 17.46875-11.628906 28.070312-11.628906 10.605469 0 20.574219 4.132812 28.074219 11.628906 11.636719 11.636719 26.925781 17.457031 42.214844 17.457031 15.285156 0 30.574219-5.820312 42.210937-17.457031 3.90625-3.90625 3.90625-10.238281 0-14.140625-3.902343-3.90625-10.234374-3.90625-14.140624 0-15.480469 15.476562-40.664063 15.476562-56.144532 0-11.273437-11.277344-26.269531-17.488281-42.214844-17.488281-14.375 0-27.964843 5.0625-38.765624 14.316406-.378907-5.371094-1.96875-10.628906-4.742188-15.425781l-22-38.105469c-5.105469-8.847656-13.429688-14.695313-22.648438-16.949219 2.660157-9.105468 1.753907-19.238281-3.351562-28.085937-11.542969-19.992188-30.171875-34.316407-52.457031-40.335938l-25.5-6.886719c-.296875-1.773437-.898438-3.503906-1.824219-5.109374l-16.785156-29.074219c-4.195313-7.265625-13.515625-9.765625-20.78125-5.570313h-.003906l-46.394532 26.789063c-7.265625 4.195312-9.761718 13.515625-5.566406 20.78125l16.785156 29.074219c.941406 1.628906 2.140625 3.007812 3.515625 4.136718l-6.789062 25.527344c-5.929688 22.308594-2.835938 45.605469 8.703125 65.597656 5.109375 8.84375 13.433594 14.691406 22.648437 16.941406-1.03125 3.535157-1.53125 7.21875-1.453125 10.925782-7.882812-1.308594-15.449218-4.988282-21.519531-11.058594-23.277344-23.277344-61.148437-23.273438-84.425781 0-7.5 7.5-17.46875 11.628906-28.070313 11.628906-10.605469 0-20.574219-4.128906-28.074219-11.628906-3.90625-3.90625-10.234374-3.90625-14.140624 0-3.90625 3.90625-3.90625 10.238281 0 14.140625 23.277343 23.277344 61.152343 23.277344 84.429687 0 7.496094-7.496094 17.464844-11.625 28.070313-11.625 10.601562 0 20.570312 4.128906 28.070312 11.625 11.6875 11.691406 27.058594 17.503906 42.410156 17.453125l20.054688 34.734375c4.808594 8.328125 12.570312 14.285156 21.859375 16.773437.261719.070313.523437.117188.785156.183594-2.65625 9.105469-1.75 19.234375 3.355469 28.074219l22 38.105469c5.105468 8.847656 13.429687 14.691406 22.644531 16.941406-2.65625 9.109375-1.753906 19.246094 3.355469 28.089844l22 38.105468c6.660156 11.535157 18.785156 17.992188 31.234375 17.992188 6.105469 0 12.285156-1.550781 17.941406-4.8125l84.742187-48.929688c8.332032-4.804687 14.289063-12.566406 16.777344-21.859374zm-138.917968-221.695313 22 38.101563c2.140624 3.703124 2.707031 8.015624 1.601562 12.144531-.785156 2.921875-2.355469 5.496093-4.511719 7.515625-12.222656 2.023437-25.210937-1.652344-34.617187-11.058594-11.273438-11.277344-26.269532-17.488281-42.214844-17.488281s-30.9375 6.210937-42.210938 17.488281c-4.269531 4.261719-9.273437 7.347656-14.605468 9.261719.320312-5.179688 3.136718-10.113281 7.960937-12.898438l84.742188-48.925781c7.640625-4.410156 17.449219-1.78125 21.855469 5.859375zm-120.171876-122.296875 11.996094 20.785156-38.101562 22-12-20.785156zm-18.28125 142.1875c-8.878906-15.375-11.257812-33.296875-6.695312-50.457031l8.320312-31.308594 39.203126-22.632813 31.273437 8.445313c17.144531 4.632813 31.472656 15.648437 40.351563 31.027344 2.136718 3.703125 2.703124 8.011719 1.601562 12.140625-1.109375 4.125-3.753906 7.574218-7.453125 9.710937 0 .003907 0 .003907-.003906.003907l-84.742188 48.929687c-7.640625 4.410156-17.445312 1.78125-21.855469-5.859375zm48 83.140625-16.496093-28.566406c7.710937-2.898438 14.941406-7.425781 21.136719-13.621094 7.5-7.496094 17.46875-11.628906 28.070312-11.628906 10.605469 0 20.574219 4.132812 28.070312 11.628906 6.125 6.121094 13.261719 10.617187 20.871094 13.519531l-59.796875 34.523438c-3.703125 2.136718-8.015625 2.707031-12.140625 1.597656-4.128906-1.105469-7.578125-3.753906-9.714844-7.453125zm48 83.136719-22-38.105469c-4.414062-7.640625-1.785156-17.445313 5.855469-21.855469l84.742188-48.925781s.003906-.003906.003906-.003906c.910156-.523438 1.851563-.941407 2.8125-1.273438.351563-.097656.703125-.199219 1.054687-.308593 6.820313-1.820313 14.292969 1.042968 17.984376 7.441406l22 38.105468c2.140624 3.699219 2.707031 8.011719 1.601562 12.140626-1.105469 4.128906-3.753906 7.578124-7.457031 9.714843l-84.742188 48.929688c-7.640625 4.410156-17.445312 1.78125-21.855469-5.859375zm162.054688 30.351562c-1.105469 4.128906-3.753906 7.582032-7.457031 9.71875l-84.742188 48.925782c-7.640625 4.410156-17.445312 1.785156-21.855469-5.855469l-22-38.105469c-4.410156-7.640625-1.785156-17.445312 5.855469-21.855469l84.742188-48.925781c7.644531-4.414062 17.445312-1.785156 21.855469 5.855469l22 38.105469c2.140624 3.699218 2.707031 8.011718 1.601562 12.136718zm0 0"/><path d="m79.789062 392.082031c-15.390624 1.222657-26.921874 14.738281-25.699218 30.128907.589844 7.453124 4.050781 14.234374 9.738281 19.085937 5.113281 4.363281 11.480469 6.703125 18.128906 6.703125.746094 0 1.5-.03125 2.257813-.089844 7.457031-.59375 14.234375-4.050781 19.089844-9.742187 4.851562-5.6875 7.199218-12.929688 6.609374-20.382813-1.21875-15.390625-14.722656-26.933594-30.125-25.703125zm8.296876 33.109375c-1.386719 1.625-3.320313 2.609375-5.453126 2.78125-2.121093.171875-4.195312-.503906-5.824218-1.890625-1.625-1.386719-2.613282-3.324219-2.78125-5.453125-.167969-2.128906.503906-4.199218 1.890625-5.824218s3.320312-2.613282 5.453125-2.78125c.214844-.019532.429687-.027344.644531-.027344 1.898437 0 3.71875.667968 5.179687 1.914062 1.625 1.386719 2.613282 3.324219 2.78125 5.453125v.003907c.167969 2.128906-.503906 4.195312-1.890624 5.824218zm0 0"/><path d="m155.914062 276.488281c-.589843-7.457031-4.050781-14.238281-9.742187-19.089843-5.6875-4.855469-12.925781-7.203126-20.382813-6.609376-7.457031.589844-14.234374 4.050782-19.089843 9.738282-4.855469 5.691406-7.203125 12.929687-6.609375 20.386718.589844 7.453126 4.050781 14.234376 9.738281 19.085938 5.113281 4.363281 11.480469 6.703125 18.125 6.703125.75 0 1.503906-.03125 2.261719-.089844 7.457031-.59375 14.234375-4.050781 19.089844-9.742187 4.851562-5.6875 7.199218-12.929688 6.609374-20.382813zm-21.828124 7.402344c-1.386719 1.625-3.320313 2.613281-5.453126 2.785156-2.128906.167969-4.199218-.503906-5.824218-1.890625-1.625-1.386718-2.613282-3.324218-2.78125-5.453125-.167969-2.132812.503906-4.199219 1.890625-5.824219s3.320312-2.613281 5.453125-2.78125c.214844-.019531.429687-.027343.644531-.027343 1.898437 0 3.71875.667969 5.179687 1.914062 1.625 1.386719 2.613282 3.324219 2.78125 5.453125.167969 2.132813-.503906 4.199219-1.890624 5.824219zm0 0"/><path d="m502.171875 271.015625c-5.691406-4.855469-12.933594-7.195313-20.386719-6.609375-7.453125.589844-14.234375 4.050781-19.085937 9.738281-4.855469 5.691407-7.203125 12.929688-6.613281 20.386719.59375 7.457031 4.050781 14.234375 9.742187 19.089844 5.113281 4.359375 11.476563 6.699218 18.125 6.699218.75 0 1.503906-.03125 2.257813-.089843 7.457031-.589844 14.238281-4.050781 19.089843-9.742188 4.855469-5.6875 7.203125-12.925781 6.609375-20.382812-.589844-7.457031-4.046875-14.238281-9.738281-19.089844zm-12.085937 26.496094c-1.386719 1.625-3.324219 2.609375-5.453126 2.78125-2.125.171875-4.199218-.503907-5.824218-1.890625-1.625-1.386719-2.613282-3.324219-2.78125-5.453125-.171875-2.128907.5-4.199219 1.886718-5.824219 1.386719-1.625 3.324219-2.613281 5.453126-2.78125.21875-.019531.433593-.027344.648437-.027344 1.898437 0 3.71875.667969 5.179687 1.914063 1.625 1.386719 2.613282 3.324219 2.78125 5.453125v.003906c.167969 2.128906-.503906 4.195312-1.890624 5.824219zm0 0"/><path d="m180.515625 352.882812h-16.847656c-5.523438 0-10 4.480469-10 10 0 5.523438 4.476562 10 10 10h16.847656c5.523437 0 10-4.476562 10-10 0-5.519531-4.476563-10-10-10zm0 0"/><path d="m458.832031 445.640625h-24.949219c-5.523437 0-10 4.476563-10 10s4.476563 10 10 10h24.949219c5.523438 0 10-4.476563 10-10s-4.476562-10-10-10zm0 0"/><path d="m393.882812 445.644531c-2.632812 0-5.210937 1.0625-7.070312 2.921875s-2.929688 4.4375-2.929688 7.078125c0 2.632813 1.066407 5.199219 2.929688 7.070313 1.859375 1.859375 4.4375 2.929687 7.070312 2.929687 2.628907 0 5.207032-1.070312 7.066407-2.929687 1.859375-1.871094 2.933593-4.4375 2.933593-7.070313 0-2.640625-1.070312-5.21875-2.933593-7.078125-1.859375-1.863281-4.4375-2.921875-7.066407-2.921875zm0 0"/><path d="m220.925781 448.398438h-18.65625c-5.519531 0-10 4.480468-10 10 0 5.523437 4.480469 10 10 10h18.65625c5.519531 0 10-4.476563 10-10 0-5.519532-4.476562-10-10-10zm0 0"/><path d="m68.332031 327.660156c0-5.519531-4.476562-10-10-10h-12.785156c-5.519531 0-10 4.480469-10 10 0 5.523438 4.480469 10 10 10h12.785156c5.523438 0 10-4.476562 10-10zm0 0"/></svg>